<svg xmlns="http://www.w3.org/2000/svg" width="1123" height="794" stroke="#000" stroke-linecap="round" stroke-linejoin="round" fill="#fff" fill-rule="evenodd"><path d="M217.1293 348.5914c-7.6023 0-13.6808 8.8804-13.6808 19.9156s6.1698 19.9143 13.6808 19.9143c7.6091 0 13.6876-8.879 13.6876-19.9143s-6.1698-19.9156-13.6876-19.9156zm-48.9568 0c-7.602 0-13.6804 8.8804-13.6804 19.9156s6.1698 19.9143 13.6804 19.9143c7.6021 0 13.688-8.879 13.688-19.9143.1336-11.0464-6.0362-19.9156-13.688-19.9156zm114.112-150.6662H102.5907c-15.1605 0-27.5001 16.6595-27.5001 37.1258v242.6075c0 20.4643 12.3396 37.1257 27.5001 37.1257h152.061l-7.1076-33.1366 17.1697 21.3672 16.2329 20.0997 28.9725 33.8658V235.051c-.1029-20.4663-12.4426-37.1258-27.6347-37.1258zm-51.7052 234.5663l-8.858-14.4854c17.5717-6.6983 24.2772-21.3674 24.2772-21.3674-5.5004 4.8909-10.7314 8.3297-15.4202 10.6857-6.706 3.7994-13.1513 6.1597-19.4548 7.7865-12.8753 3.2599-24.6792 2.3614-34.7337-.1791-7.6095-1.9912-14.2227-4.7077-19.7221-7.7862-3.3595-1.7516-6.6339-3.808-9.7871-6.1597-.4097-.359-.8117-.5435-1.2138-.9041-.2673-.1789-.402-.3577-.5271-.3577-2.4188-1.8125-3.7586-3.0813-3.7586-3.0813s6.4372 14.3065 23.4732 21.1886l-8.9907 14.8501c-29.6429-1.2689-40.9025-27.3436-40.9025-27.3436 0-57.7685 19.3125-104.6647 19.3125-104.6647 19.3125-19.3762 37.5555-18.8398 37.5555-18.8398l1.3474 2.1731c-24.1425 9.2381-35.1433 23.5419-35.1433 23.5419s2.9469-2.1704 7.9116-5.0699c14.3564-8.5113 25.7507-10.6857 30.4152-11.4111.8041-.1788 1.4735-.3576 2.2776-.3576 8.9909-1.581 18.0863-1.7024 27.098-.3607 12.7417 1.9913 26.4201 7.0639 40.3754 17.2061 0 0-10.5978-13.5812-33.4015-22.8152l1.8831-2.8995s18.3757-.5435 37.5556 18.8367c0 0 19.3125 46.9033 19.3125 104.6712 0-.1788-11.2682 25.8951-40.9026 27.1624zm202.5325-157.0616h-44.5626v67.5454l29.6356 36.0316v-65.5958h15.8298c10.0611 0 15.0172 6.5179 15.0172 17.0202v50.2192c0 10.501-4.6964 17.5647-15.0172 17.5647h-45.5989v38.2069h44.5274c23.8752.1803 46.2715-15.9373 46.2715-52.8779V329.58c.132-37.6653-22.2626-54.1501-46.1378-54.1501zM666.5369 383.54v-55.4144c0-19.9131 26.5557-24.4462 34.6074-4.5265l24.543-13.3455c-9.6583-28.6071-27.23-36.9399-41.8482-36.9399-23.8743 0-47.5223 18.6538-47.5223 54.9211v55.412c0 36.5822 23.5683 54.9211 46.9426 54.9211 15.0163 0 32.9966-9.9569 42.9573-36.0317l-26.2869-16.2974c-6.4372 22.2769-33.3976 16.8369-33.3976-2.5352zm-81.2617-47.8004c-9.2541-2.7207-15.4239-7.1858-15.826-15.0289.5346-18.6538 21.8574-19.3762 34.3382-1.4477l19.7157-20.466c-12.3407-20.2735-26.2914-25.6621-40.6817-25.6621-21.8589 0-43.055 16.6595-43.055 48.1697 0 30.6079 17.4401 47.0846 36.6229 51.0712 9.7885 1.8124 20.6533 7.0639 20.386 16.1164-.8041 17.2057-27.0956 16.2974-39.0322-3.2577l-19.0082 24.0814c11.1335 19.3762 26.2867 29.1544 40.5091 29.1544 21.8574 0 46.1384-17.0203 47.0798-48.1701 1.3409-39.2959-19.8557-49.2551-41.0437-54.5108zm-89.8723 100.4987h30.045V275.4299h-30.045v160.8084zm506.6419-160.8084h-44.5287v67.5454l29.6411 36.0316v-65.5958h15.8267c10.0596 0 15.0168 6.5179 15.0168 17.0202v50.2192c0 10.501-4.6953 17.5647-15.0168 17.5647h-45.601v38.2069h44.6694c23.8672.174 46.2667-15.9422 46.2667-52.8821v-53.96c0-37.6653-22.3995-54.1501-46.2742-54.1501zm-218.4928-2.1731c-24.6814 0-49.2246 18.1103-49.2246 55.229v54.9211c0 36.7609 24.6823 55.2276 49.4964 55.2276 24.6809 0 49.2245-18.4776 49.2245-55.2276v-54.9211c0-36.9399-24.8136-55.229-49.4963-55.229zm19.3123 110.0974c0 11.59-9.6574 17.5653-19.1799 17.5653-9.6563 0-19.3125-5.6148-19.3125-17.5653V328.436c0-11.7718 9.3888-18.1103 18.7815-18.1103 9.7926 0 19.7145 5.6162 19.7145 18.1103v54.9182zm138.0154-54.9182c-.6693-37.6653-19.716-52.8771-44.2618-52.8771H848.997v160.807h30.4132v-51.0703h5.3223l27.6313 51.0703h37.56l-32.4581-55.2276c14.3507-6.1597 23.3413-22.9939 23.3413-52.6982zm-43.7259 21.7309h-17.7053v-36.7558h17.7053c18.9119 0 18.9119 36.7611 0 36.7611z" stroke="none" fill-rule="nonzero"/></svg>